<svg width="40" height="40" viewBox="0 0 40 40" fill="none" xmlns="http://www.w3.org/2000/svg">
<rect y="40" width="40" height="40" rx="20" transform="rotate(-90 0 40)" fill="white"/>
<path fill-rule="evenodd" clip-rule="evenodd" d="M14.5581 22.8916C14.314 23.1356 14.314 23.5314 14.5581 23.7754L17.0581 26.2754C17.3021 26.5195 17.6979 26.5195 17.9419 26.2754C18.186 26.0314 18.186 25.6356 17.9419 25.3916L16.5089 23.9585L25 23.9585C25.3452 23.9585 25.625 23.6787 25.625 23.3335C25.625 22.9883 25.3452 22.7085 25 22.7085L16.5089 22.7085L17.9419 21.2754C18.186 21.0314 18.186 20.6356 17.9419 20.3916C17.6979 20.1475 17.3021 20.1475 17.0581 20.3916L14.5581 22.8916ZM22.9419 19.6088L25.4419 17.1088C25.686 16.8647 25.686 16.469 25.4419 16.2249L22.9419 13.7249C22.6979 13.4808 22.3021 13.4808 22.0581 13.7249C21.814 13.969 21.814 14.3647 22.0581 14.6088L23.4911 16.0418L15 16.0418C14.6548 16.0418 14.375 16.3217 14.375 16.6668C14.375 17.012 14.6548 17.2918 15 17.2918L23.4911 17.2918L22.0581 18.7249C21.814 18.969 21.814 19.3647 22.0581 19.6088C22.3021 19.8528 22.6979 19.8528 22.9419 19.6088Z" fill="#131118"/>
</svg>
