<svg width="40" height="40" viewBox="0 0 40 40" fill="none" xmlns="http://www.w3.org/2000/svg">
<rect width="40" height="40" rx="20" fill="white"/>
<path d="M27.6087 18.2108C28.575 19.2275 28.575 20.7722 27.6087 21.7889C25.9788 23.5037 23.1797 25.8332 20.0001 25.8332C16.8205 25.8332 14.0213 23.5037 12.3915 21.7889C11.4252 20.7722 11.4252 19.2275 12.3915 18.2108C14.0213 16.4959 16.8205 14.1665 20.0001 14.1665C23.1797 14.1665 25.9788 16.4959 27.6087 18.2108Z" stroke="#131118" stroke-width="1.5"/>
<path d="M22.5001 19.9998C22.5001 21.3805 21.3808 22.4998 20.0001 22.4998C18.6194 22.4998 17.5001 21.3805 17.5001 19.9998C17.5001 18.6191 18.6194 17.4998 20.0001 17.4998C21.3808 17.4998 22.5001 18.6191 22.5001 19.9998Z" stroke="#131118" stroke-width="1.5"/>
</svg>
