<svg width="143" height="44" viewBox="0 0 143 44" fill="none" xmlns="http://www.w3.org/2000/svg">
<g id="Group 56">
<g id="Group">
<path id="Vector" d="M0 0.897949V16.611L9.39604 9.38741L0 0.897949Z" fill="white"/>
<path id="Vector_2" d="M0 43.1383L9.39604 34.6508L0 27.4326V43.1383Z" fill="white"/>
<path id="Vector_3" d="M17.6191 19.8654L41.2598 0.897461H27.4806L0 22.0226L17.6191 19.8654Z" fill="white"/>
<path id="Vector_4" d="M0 22.0225L27.4806 43.1394H41.2598L17.6191 24.1678L0 22.0225Z" fill="white"/>
</g>
<g id="Krist">
<path d="M48.6411 2.71959H53.2872V40.9816H48.6411V2.71959ZM68.3187 2.71959H74.058L57.496 20.6481L74.8779 40.9816H69.1386L51.8661 20.7574L68.3187 2.71959Z" fill="white"/>
<path d="M83.647 15.838V40.9816H79.2742V15.838H83.647ZM91.2447 20.6481C90.6617 20.2108 90.1333 19.901 89.6596 19.7188C89.1858 19.5002 88.5846 19.3909 87.8558 19.3909C86.7626 19.3909 85.9062 19.6642 85.2868 20.2108C84.6673 20.7574 84.23 21.5044 83.9749 22.4518C83.7563 23.3993 83.647 24.4742 83.647 25.6768H81.6792C81.6792 23.6726 82.0254 21.9052 82.7178 20.3748C83.4465 18.8078 84.3758 17.5689 85.5054 16.6579C86.635 15.7469 87.7829 15.2914 88.949 15.2914C89.86 15.2914 90.6981 15.4189 91.4633 15.674C92.265 15.8926 92.9938 16.3481 93.6497 17.0405L91.2447 20.6481Z" fill="white"/>
<path d="M98.0101 5.45259C98.0101 4.61447 98.3017 3.90389 98.8847 3.32085C99.5042 2.73781 100.215 2.44629 101.016 2.44629C101.855 2.44629 102.565 2.73781 103.148 3.32085C103.731 3.90389 104.023 4.61447 104.023 5.45259C104.023 6.25427 103.731 6.96485 103.148 7.58433C102.565 8.16736 101.855 8.45888 101.016 8.45888C100.215 8.45888 99.5042 8.16736 98.8847 7.58433C98.3017 6.96485 98.0101 6.25427 98.0101 5.45259ZM98.83 15.838H103.203V40.9816H98.83V15.838Z" fill="white"/>
<path d="M113.247 33.2745C113.758 34.0397 114.341 34.7503 114.997 35.4062C115.652 36.0622 116.4 36.5905 117.238 36.9914C118.112 37.3558 119.06 37.538 120.08 37.538C121.319 37.538 122.285 37.2647 122.977 36.7181C123.706 36.135 124.07 35.3516 124.07 34.3677C124.07 33.4931 123.779 32.7643 123.196 32.1813C122.649 31.5618 121.938 31.0517 121.064 30.6508C120.189 30.2135 119.26 29.8127 118.276 29.4483C117.183 29.011 116.072 28.5009 114.942 27.9178C113.849 27.2983 112.919 26.5149 112.154 25.5674C111.425 24.5836 111.061 23.3628 111.061 21.9052C111.061 20.4112 111.444 19.1722 112.209 18.1884C113.011 17.2045 114.031 16.4757 115.27 16.002C116.545 15.5282 117.857 15.2914 119.205 15.2914C120.554 15.2914 121.811 15.51 122.977 15.9473C124.179 16.3846 125.236 16.9676 126.147 17.6964C127.058 18.4252 127.769 19.2633 128.279 20.2108L124.781 22.4518C124.088 21.5044 123.214 20.7209 122.157 20.1014C121.137 19.482 119.971 19.1722 118.659 19.1722C117.748 19.1722 116.964 19.3727 116.308 19.7735C115.652 20.1743 115.325 20.7938 115.325 21.6319C115.325 22.2878 115.58 22.8709 116.09 23.381C116.6 23.8912 117.256 24.3467 118.058 24.7475C118.859 25.1484 119.697 25.531 120.572 25.8954C122.029 26.4784 123.36 27.1161 124.562 27.8085C125.765 28.4644 126.712 29.2661 127.404 30.2135C128.133 31.161 128.498 32.3817 128.498 33.8758C128.498 36.0622 127.696 37.8842 126.093 39.3418C124.526 40.7994 122.449 41.5282 119.861 41.5282C118.185 41.5282 116.673 41.2366 115.325 40.6536C113.976 40.0341 112.828 39.2507 111.881 38.3032C110.97 37.3558 110.278 36.3901 109.804 35.4062L113.247 33.2745Z" fill="white"/>
<path d="M130.428 15.838H143V19.9375H130.428V15.838ZM134.528 7.09239H138.9V40.9816H134.528V7.09239Z" fill="white"/>
</g>
</g>
</svg>
