<svg width="40" height="40" viewBox="0 0 40 40" fill="none" xmlns="http://www.w3.org/2000/svg">
<rect width="40" height="40" rx="20" fill="white"/>
<g clip-path="url(#clip0_3232_6649)">
<path d="M18.3608 12.726C19.0313 11.3133 20.9688 11.3133 21.6394 12.726L22.7983 15.1675C23.0646 15.7285 23.5793 16.1173 24.1748 16.2072L26.7662 16.5987C28.2656 16.8253 28.8644 18.7411 27.7794 19.8407L25.9042 21.7412C25.4733 22.1778 25.2767 22.807 25.3784 23.4235L25.8211 26.107C26.0772 27.6596 24.5098 28.8437 23.1686 28.1106L20.8508 26.8437C20.3182 26.5526 19.682 26.5526 19.1494 26.8437L16.8316 28.1106C15.4904 28.8437 13.9229 27.6596 14.1791 26.107L14.6217 23.4235C14.7235 22.807 14.5268 22.1778 14.096 21.7412L12.2208 19.8407C11.1358 18.7411 11.7345 16.8253 13.234 16.5987L15.8254 16.2072C16.4208 16.1173 16.9356 15.7285 17.2018 15.1675L18.3608 12.726Z" stroke="#131118" stroke-width="1.5" stroke-linejoin="round"/>
</g>
<defs>
<clipPath id="clip0_3232_6649">
<rect width="20" height="20" fill="white" transform="translate(10 10)"/>
</clipPath>
</defs>
</svg>
