<svg width="36" height="24" viewBox="0 0 36 24" fill="none" xmlns="http://www.w3.org/2000/svg">
<g id="Payment Method/Visa">
<rect width="36" height="24" rx="2.4" fill="white"/>
<g id="Vector">
<path d="M24.3739 7.87013C23.9305 7.69422 23.2273 7.5 22.3577 7.5C20.1378 7.5 18.5745 8.68378 18.5649 10.3762C18.5465 11.6249 19.6842 12.3184 20.5351 12.7348C21.4048 13.1602 21.7004 13.4379 21.7004 13.8172C21.6916 14.3996 20.9976 14.6681 20.3504 14.6681C19.453 14.6681 18.9721 14.5296 18.2413 14.2056L17.9453 14.0667L17.6307 16.0183C18.1579 16.2585 19.1293 16.4716 20.1378 16.481C22.4965 16.481 24.0321 15.3155 24.0503 13.5119C24.0592 12.5223 23.4585 11.7639 22.1634 11.1443C21.3771 10.7465 20.8956 10.4782 20.8956 10.0712C20.9048 9.70123 21.3029 9.32225 22.1904 9.32225C22.9212 9.30369 23.4581 9.47935 23.8649 9.65514L24.0682 9.74745L24.3739 7.87013Z" fill="#3362AB"/>
<path d="M16.2249 16.3514H13.977L15.383 7.65759H17.6308L16.2249 16.3514Z" fill="#3362AB"/>
<path fill-rule="evenodd" clip-rule="evenodd" d="M30.1364 7.65759H28.3976C27.8614 7.65759 27.4541 7.81469 27.2227 8.37892L23.8837 16.3513H26.2424C26.2424 16.3513 26.6307 15.2783 26.7142 15.0472H29.6003C29.6649 15.3524 29.8686 16.3513 29.8686 16.3513H31.9499L30.1364 7.65759ZM27.3616 13.2715C27.5468 12.772 28.2591 10.839 28.2591 10.839C28.2554 10.8465 28.2843 10.7662 28.3275 10.6464L28.328 10.6449L28.3284 10.644C28.3929 10.4651 28.4887 10.1996 28.5549 10.0067L28.712 10.7558C28.712 10.7558 29.1377 12.8368 29.2301 13.2715H27.3616Z" fill="#3362AB"/>
<path d="M12.0994 7.65759L9.89793 13.5859L9.65737 12.3836L9.65715 12.3829L8.87113 8.38838C8.74169 7.83313 8.3439 7.67591 7.85367 7.65759H4.23695L4.19995 7.83325C5.08206 8.05882 5.87102 8.38387 6.56231 8.78803L8.56591 16.3422H10.943L14.4764 7.65759H12.0994Z" fill="#3362AB"/>
</g>
</g>
</svg>
